# xmcd CD database file
# Copyright (C) 1993-1998 Ti Kan
#
# Track frame offsets:
# 182
# 22137
# 38555
# 59492
# 77727
# 93675
# 110730
# 132067
# 150897
# 172772
# 196535
#
# Disc length: 2664 seconds
#
# Revision: 1
# Processed by: cddbd v1.4b41PL1 Copyright (c) Steve Scherf et al.
# Submitted via: MediaSauce 1.5 http://www.flatcracker.com
#
DISCID=7f0a660b
DTITLE=Bobby Murray - "The Blues is now"
DYEAR=1900
DGENRE=
TTITLE0=The future is now
TTITLE1=That's allright
TTITLE2=Vicki
TTITLE3=Let my guitar do the talking
TTITLE4=Loveland
TTITLE5=Broke 'n' hungry
TTITLE6=Here I am
TTITLE7=But then again (Taifa's tune)
TTITLE8=Chillin' and able
TTITLE9=The river's invitation
TTITLE10=Variation #2
EXTD=
EXTT0=
EXTT1=
EXTT2=
EXTT3=
EXTT4=
EXTT5=
EXTT6=
EXTT7=
EXTT8=
EXTT9=
EXTT10=
PLAYORDER=
